<?xml version="1.0" encoding="UTF-8"?>
<svg xmlns="http://www.w3.org/2000/svg" version="1.1" viewBox="0 0 412.6 283">
  <defs>
    <style>
      .cls-1 {
        fill: none;
      }

      .cls-2 {
        fill: #4153a4;
      }

      .cls-3 {
        fill: #f1e912;
      }
    </style>
  </defs>
  <!-- Generator: Adobe Illustrator 28.6.0, SVG Export Plug-In . SVG Version: 1.2.0 Build 709)  -->
  <g>
    <g id="Layer_1">
      <g id="Layer_1-2" data-name="Layer_1">
        <polygon class="cls-1" points="261.1 99.1 261.1 99.1 257.9 86 257.9 86 261.1 99.1"/>
        <path class="cls-1" d="M303.7,122.2l6.3,6.8,1.3-5.1c-.9-.2-1.8-.4-2.7-.6l-5-1.2h0Z"/>
        <path class="cls-1" d="M273.2,106.8l-3.6.9,1.5,6.1,20.2-4.9,11.1,12-6.6-27.3c-1.7,2-3.7,4-5.9,5.7-4.6,3.4-10.2,6-16.7,7.5h0Z"/>
        <g>
          <path class="cls-3" d="M62.2,179.5c-6.1,1.5-11.7,2.3-16.8,2.5s-9.7-.2-14-1.4l-5.8-23.8,15.5-3.7c1.4,1.6,3.2,2.9,5.1,4,2,1.1,4.1,1.4,6.5.8s3.1-1.4,3.9-2.7c.8-1.3,1.3-3,1.4-4.8,0-1.9,0-3.7-.5-5.4l-5.4-22.4-8.4.7-5.4-22.3,49-11.8,5.4,22.3-7.8,3.2,5.4,22.4c2.8,11.6,1.7,20.8-3.3,27.7s-13.3,11.9-24.8,14.6h0Z"/>
          <path class="cls-3" d="M109.8,167.1l-4.9-20.4,5.8-2.6-7.1-29.2-6.4.3-4.9-20.2,43.2-10.4,4.9,20.2-5.8,2.6,7.1,29.2,6.4-.3,4.9,20.4-43.2,10.4Z"/>
          <path class="cls-3" d="M159.9,154.9l-4.9-20.4,5.8-2.6-7.1-29.2-6.4.3-4.9-20.2,36.9-8.9,22.2,23.8,8.7-31.3,36.9-8.9,4.9,20.2-5.8,2.6,7.1,29.2,6.4-.3,4.9,20.4-36.9,8.9-8.5-35.3-9.1,29.8-21.9-22.3,8.5,35.3-36.9,8.9h0Z"/>
          <path class="cls-3" d="M270.8,97l-4-16.6c1.9-.6,3.3-1.5,4.2-2.9.9-1.4,1.2-3.2.7-5.2l-13,3.2-6.3-26.2,32.8-7.9,6.3,26.1c1.3,5.2,1.3,9.9-.2,13.8s-3.8,7.3-7.4,9.9c-3.6,2.6-7.9,4.6-13.1,5.8Z"/>
          <path class="cls-3" d="M341.2,112c-6.1,1.5-11.7,2.4-16.4,2.6-4.9.4-9.4,0-13.7-1.1l-4.3-17.8,14.5-3.5c1.6,1.5,3.3,2.7,5.4,3.5,2.1.8,4.3,1,6.8.4s3.9-1.8,4.3-3.5c.5-1.8.4-3.9-.2-6.5-4.4.6-8.6,1-12.8,1-4.2,0-8.1-.4-11.7-1.4-3.5-1-6.6-2.8-9.2-5.4-2.6-2.6-4.5-6.1-5.6-10.8s-1.4-11.7.5-16.1,5.2-7.9,9.7-10.8c4.6-2.8,9.9-5,16.2-6.5s11.4-2.1,16.4-2.2c4.9,0,9.7.3,14,1.2l4.3,17.9-15.6,3.8c-1.4-1.6-3.1-3-4.9-4.1s-4-1.3-6.3-.7-4,1.9-4.4,3.9c-.4,2.1-.4,4.4.3,7.1,4.9-1,9.5-1.6,13.8-1.8,4.4-.2,8.3.3,11.8,1.4,3.6,1.1,6.6,3,9.1,5.7,2.5,2.8,4.4,6.6,5.6,11.5,1.2,5,1.2,11.3-.9,15.4s-5.5,7.5-10.2,10.1c-4.6,2.6-10.1,4.6-16.4,6.1v.3Z"/>
          <path class="cls-3" d="M103.3,165.7c-1.8,0-3.6,0-5.5,0-1.4,0-2.9,0-4.3.2-.5.8-1,1.7-1.6,2.6-5.8,8.2-15.4,13.9-28.3,17-12.9,3.1-12.5,2.5-17.9,2.7-.8,0-1.5,0-2.4,0-2.3,3.1-4.1,6.6-5.3,10.4-2.5,7.6-2.4,16.5.1,26.8,3.7,15.4,10.9,25.8,21.5,31.3s23.6,6.4,38.8,2.7,14.8-4.5,20.8-7.7c6-3.2,11.5-6.7,16.6-10.4l-10-41.2-36.4,8.8,3.7,15.3,12.4-3,1.7,7.1c-1.4.9-2.9,1.6-4.4,2.2-1.5.7-3.2,1.2-5.1,1.6-6.6,1.6-11.6,1.1-14.9-1.6-3.3-2.7-5.8-7.4-7.5-14.2s-1-10.7,1-14.6c2.1-4,5.9-6.8,11.5-8.1,5.6-1.4,6.9-.8,9.3.1,2.4,1.1,4.6,2.5,6.7,4.4l17.6-4.3-5.4-22.3-11.1,2.7-2.1-8.7h.1Z"/>
          <polygon class="cls-3" points="220.9 136.2 214.9 137.6 212.9 144.4 207.9 139.3 201.8 140.8 204.1 150.4 188 154.3 191.6 169.2 197.7 169.1 190.3 190 174.1 174.9 179.6 172.1 176 157.2 160.2 161 155.5 162.2 126.2 169.3 129.8 184.1 139.5 183.2 173.7 212.1 166.6 215.8 172.6 240.4 229.1 226.8 223.1 202.1 215.2 202.1 232.3 160.8 241.3 157.2 237.8 142.3 223.3 145.8 220.9 136.2"/>
          <path class="cls-3" d="M342.6,117.8c-6.4,1.6-12.4,2.5-17.5,2.8-.8,0-1.6,0-2.5,0l-7.8,28-26.8-28.9-18.4,4.4,2.3,9.5-26.3,6.4,3.6,14.9,7.8-.4,8.5,35.3-7.1,3.3,6,24.8,44.7-10.8-10.3-42.8,26.4,27,11-36,10.3,42.8,44.7-10.8-6-24.8-7.8.4-8.5-35.3,7.1-3.3-5.4-22.2c-2.5,3.5-6,6.4-10.2,8.8-5.1,2.8-11.1,5.1-17.8,6.7v.2Z"/>
        </g>
        <polygon class="cls-1" points="261.1 99.1 261.1 99.1 257.9 86 257.9 86 261.1 99.1"/>
        <path class="cls-1" d="M303.7,122.2l6.3,6.8,1.3-5.1c-.9-.2-1.8-.4-2.7-.6l-5-1.2h0Z"/>
        <path class="cls-1" d="M273.2,106.8l-3.6.9,1.5,6.1,20.2-4.9,11.1,12-6.6-27.3c-1.7,2-3.7,4-5.9,5.7-4.6,3.4-10.2,6-16.7,7.5h0Z"/>
        <path class="cls-1" d="M357.6,59.1l7.8-1.9-6.3-25.9-3.1-.6c-4.6-.9-9.7-1.4-15-1.3-5.3,0-11.2.9-17.5,2.4s-12.7,4-17.6,7c-5.4,3.3-9.3,7.7-11.7,13-.3.7-.6,1.4-.8,2.2l-4.5-18.7-42.5,10.3,1.6,6.5-41.7,10.1-7.1,25.5-18.1-19.4-88.4,21.4-1.6-6.5-58.7,14.2,7.5,31.2,8.4-.7,4.4,18.3c.3,1.4.4,2.7.4,4,0,.9-.3,1.8-.6,2.4,0,0-.2.3-.8.4-1.5.4-2.4,0-2.9-.3-1.4-.8-2.7-1.8-3.8-3l-2-2.2-23.2,5.6,7.6,31.5,2.9.7c2.5.7,5.2,1.2,8.1,1.4-2,3.2-3.7,6.5-4.9,10.1-2.7,8.5-2.8,18.4,0,29.5,4,16.7,12.1,28.3,24,34.5,11.7,6.1,25.9,7.2,42.3,3.2,16.4-4,15.5-4.7,21.9-8.1,6.2-3.3,12-6.9,17.3-10.8l2.7-2-11.9-49.3-2.5.6-1.3-5.2-2.3.6-5.3-21.9,5.1-1.2,5.3,21.9-2.6.6,12-1.1,26.8,22.7-3.8,2.1,8.1,33.3,66.2-16-8.1-33.3h-4.4c0,0,13.4-32.5,13.4-32.5l10.6-4.2,6.3-.3,6.6,27.3-7.1,3.3,8.1,33.6,54.4-13.2-7.3-30,19.7,20,8.1-26.5,7.2,29.8,54.4-13.2-8.1-33.6-7.8.4-6.6-27.3,7.1-3.3-8.1-33.4c1.1-4.3,1.1-9.2-.3-14.7-1.3-5.5-3.6-10.3-6.7-13.7-2.5-2.9-5.6-5-9.2-6.4h.2ZM83.7,205.4l5.5,22.5c-1.1-.3-2-.6-2.8-1.2-2.4-2-4.4-5.9-5.8-11.5s-.9-8.3.6-11.2c1.4-2.7,4.1-4.5,8.2-5.5s5.2-.5,6.1-.1c1.6.7,3.2,1.7,4.8,3.1l-16.6,4h0ZM104.8,141.1l-5.8,2.6,4.1,16.9c-2,0-3.7-.1-5.5,0-.9,0-1.8,0-2.9,0,2.5-7,2.7-15.3.4-24.8l-4.4-18.3,1.8-.7.8,3.4,6.4-.3s5.1,21.1,5.1,21.1ZM155,129l-4.6,2-5,.3-5.1-21.1,4.6-2,5-.3,5.1,21.1ZM188.2,181.1l-5.4-5,2.7-1.4-4.8-19.7,2.2-.5,4.8,19.7h3s-2.5,6.9-2.5,6.9h0ZM199.6,136.2l-2.2-9,7.6,7.7-5.4,1.3ZM220.7,131.1l-5.2,1.3,3.1-10.2,2.2,8.9ZM312.5,138.9l-22.8-24.4-22.2,5.4-3.8-15.8-6.4.3-5.1-21.1,4.2-1.9,5.3-1.3,5.6,23.1,4.9-1.2c5.8-1.4,10.8-3.7,14.8-6.7,4.4-3.2,7.4-7.3,9.1-12.3.3-1,.5-2,.8-3,1,1.6,2.1,3,3.3,4.2,2.6,2.6,5.6,4.5,9.1,5.8l-8.7,2.1,6.2,25.7,3,.7c2.5.6,5.2,1,7.9,1.2l-5.3,19.2h0ZM333,57.7h0l.7-.2c1-.2,1.6-.2,2,0-.9.1-1.9.3-2.8.4h0Z"/>
        <path class="cls-2" d="M95.5,198.3c-.9-.4-2.7-.7-6.1.1s-6.8,2.8-8.2,5.5c-1.6,2.9-1.7,6.7-.6,11.2s3.3,9.5,5.8,11.5c.8.6,1.7,1,2.8,1.2l-5.5-22.5,16.6-4c-1.5-1.3-3.1-2.3-4.8-3.1h0Z"/>
        <path class="cls-2" d="M92.5,116.9l-1.8.7,4.4,18.3c2.3,9.5,2.1,17.8-.4,24.8,1,0,1.9,0,2.9,0,1.6,0,3.4,0,5.5,0l-4.1-16.9,5.8-2.6-5.1-21.1-6.4.3s-.8-3.4-.8-3.4Z"/>
        <path class="cls-2" d="M370.6,62.2c-.3-.3-.6-.6-.8-.8l1.7-.4-8.2-33.9-6.3-1.3c-5-1-10.4-1.5-16.1-1.4-5.7,0-11.9.9-18.6,2.5s-13.7,4.3-19.1,7.6c-3,1.9-5.6,3.9-7.9,6.4l-2.8-11.7-52.2,12.6,1.6,6.5-39.7,9.6-5.5,19.7-14-15-86.5,20.9-1.6-6.5-68.3,16.5,9.7,40.2,8.4-.7,2.8,11.7-2.5-2.9-30.9,7.5,9.5,39.2,5.6,1.6c.6.2,1.1.3,1.6.4-.7,1.6-1.3,3.2-1.8,4.9-3,9.4-3,20.2-.1,32.2,4.4,18.2,13.3,30.9,26.6,37.8,12.8,6.7,28.2,7.9,45.8,3.6s16.4-5,23.1-8.6c6.4-3.4,12.4-7.2,17.9-11.2l5.3-4-12.5-51.8,1.6-.2,19.5,16.6-.7.4,10.2,42,75.9-18.4-10.2-42h-.9s9.8-23.7,9.8-23.7l7.9-3.1h1.3s4.7,19.2,4.7,19.2l-7.1,3.3,10.3,42.5,64.2-15.5-4.2-17.2,12.8,13.1,5.2-17.1,4.1,16.9,64.2-15.5-10.3-42.5-7.8.4-4.7-19.2,7.1-3.3-8.8-36.4c1-4.8.8-10.2-.6-15.9-1.4-5.7-4.2-11.8-7.9-15.9h.1ZM373.8,93.9l8.1,33.4-7.1,3.3,6.6,27.3,7.8-.4,8.1,33.6-54.4,13.2-7.2-29.8-8.1,26.5-19.7-20,7.3,30-54.4,13.2-8.1-33.6,7.1-3.3-6.6-27.3-6.3.3-10.6,4.2-13.4,32.5h4.4c0,0,8.1,33.4,8.1,33.4l-66.2,16-8.1-33.3,3.8-2.1-26.8-22.7-12,1.1h0l1.3,5.2,2.5-.6,11.9,49.3-2.7,2c-5.2,3.8-11,7.5-17.3,10.8-6.4,3.4-13.8,6.1-21.9,8.1-16.4,4-30.7,2.9-42.3-3.2-11.9-6.3-20-17.9-24-34.5s-2.7-21,0-29.5c1.2-3.7,2.8-7.1,4.9-10.1-2.8-.2-5.5-.7-8.1-1.4l-2.9-.7-7.6-31.5,23.2-5.6,2,2.2c1,1.2,2.3,2.2,3.8,3,.6.3,1.4.7,2.9.3s.7-.4.8-.4c.4-.6.6-1.4.6-2.4,0-1.4,0-2.7-.4-4l-4.4-18.3-8.4.7-7.6-31.3,58.7-14.2,1.6,6.5,88.4-21.4,18.1,19.4,7.1-25.5,41.7-10.1-1.6-6.5,42.5-10.3,4.5,18.7c.2-.7.5-1.5.8-2.2,2.3-5.3,6.3-9.8,11.7-13,4.9-3,10.9-5.4,17.6-7s12.2-2.3,17.5-2.4c5.2,0,10.3.4,15,1.3l3.1.6,6.3,25.9-7.8,1.9c3.5,1.4,6.6,3.5,9.2,6.4,3.1,3.4,5.3,8,6.7,13.7s1.4,10.5.3,14.7l-.3.2Z"/>
        <path class="cls-2" d="M306.8,117.9l-6.2-25.7,8.7-2.1c-3.4-1.3-6.5-3.3-9.1-5.8-1.2-1.2-2.4-2.6-3.3-4.2-.2,1-.5,2-.8,3-1.7,4.9-4.8,9.1-9.1,12.3-4.1,3-9.1,5.3-14.8,6.7l-4.9,1.2-5.6-23.1-5.3,1.3-4.2,1.9,5.1,21.1,6.4-.3,3.8,15.8,22.2-5.4,22.8,24.4,5.3-19.2c-2.7-.2-5.4-.6-7.9-1.2l-3-.7h0ZM261.1,99.1h0l-3.2-13.1h0l3.2,13.1ZM302.4,120.9l-11.1-12-20.2,4.9-1.5-6.1,3.6-.9c6.5-1.6,12.1-4.1,16.7-7.5,2.3-1.7,4.3-3.6,5.9-5.7l6.6,27.3h0ZM310,128.9l-6.3-6.8,5,1.2c.9.2,1.7.4,2.7.6l-1.3,5.1h0Z"/>
        <path class="cls-2" d="M333.1,57.6h0c.9-.2,1.9-.3,2.8-.4-.4-.1-1.2-.1-2,0s-.6.1-.7.2h0Z"/>
        <polygon class="cls-2" points="140.4 110.2 145.5 131.3 150.5 131 155 129 149.9 107.9 144.9 108.1 140.4 110.2"/>
        <polygon class="cls-2" points="220.7 131.1 218.6 122.2 215.5 132.3 220.7 131.1"/>
        <polygon class="cls-2" points="199.6 136.2 205 134.9 197.5 127.1 199.6 136.2"/>
        <polygon class="cls-2" points="182.9 154.5 180.7 155.1 185.4 174.8 182.8 176.1 188.2 181.1 190.6 174.2 187.7 174.3 182.9 154.5"/>
      </g>
    </g>
  </g>
</svg>