<?xml version="1.0" encoding="UTF-8"?>
<svg xmlns="http://www.w3.org/2000/svg" version="1.1" viewBox="0 0 412.6 216.3">
  <defs>
    <style>
      .cls-1 {
        fill: none;
      }

      .cls-2 {
        fill: #f1e912;
      }

      .cls-3 {
        fill: #4153a4;
      }
    </style>
  </defs>
  <!-- Generator: Adobe Illustrator 28.6.0, SVG Export Plug-In . SVG Version: 1.2.0 Build 709)  -->
  <g>
    <g id="Layer_1">
      <polygon class="cls-1" points="270.9 76.3 270.9 76.3 270.9 62.8 270.9 62.8 270.9 76.3"/>
      <path class="cls-1" d="M306.9,108.8l4.5,8.1,2.5-4.6c-.8-.4-1.7-.8-2.5-1.2l-4.6-2.3Z"/>
      <path class="cls-1" d="M280.9,86.6h-3.7v6.3h20.8l8,14.3v-28.1c-2.1,1.6-4.5,3-7.1,4.1-5.3,2.2-11.3,3.4-18,3.4Z"/>
      <g>
        <path class="cls-2" d="M58.7,107.7c-6.3,0-11.9-.5-16.9-1.5-5-1-9.4-2.5-13.3-4.7v-24.5h15.9c1,1.9,2.4,3.6,4,5.1,1.7,1.5,3.7,2.3,6.1,2.3s3.3-.6,4.4-1.7c1.1-1.1,2-2.6,2.5-4.3.5-1.8.8-3.6.8-5.4v-23l-8.3-1.3v-22.9h50.4v22.9l-8.3,1.3v23c0,11.9-3.2,20.6-9.7,26.2-6.5,5.6-15.7,8.4-27.5,8.4Z"/>
        <path class="cls-2" d="M107.9,106.8v-21l6.3-1.2v-30l-6.3-1.2v-20.8h44.4v20.8l-6.3,1.2v30l6.3,1.2v21h-44.4Z"/>
        <path class="cls-2" d="M159.5,106.8v-21l6.3-1.2v-30l-6.3-1.2v-20.8h38l16,28.4,15.8-28.4h38v20.8l-6.3,1.2v30l6.3,1.2v21h-38v-36.3l-15.8,26.8-16-26.8v36.3h-38Z"/>
        <path class="cls-2" d="M280.9,76.6v-17.1c2-.1,3.6-.7,4.8-1.8,1.2-1.1,1.9-2.8,1.9-4.9h-13.4v-27h33.7v26.9c0,5.4-1.1,9.9-3.4,13.4-2.3,3.5-5.4,6.2-9.5,7.9-4.1,1.7-8.8,2.6-14.1,2.6Z"/>
        <path class="cls-2" d="M345.8,107.7c-6.3,0-11.9-.4-16.6-1.3-4.8-.8-9.1-2.3-13.1-4.3v-18.3h14.9c1.2,1.8,2.6,3.4,4.4,4.7,1.8,1.3,3.9,2,6.5,2s4.2-.8,5-2.4c.9-1.6,1.3-3.7,1.3-6.4-4.4-.4-8.6-1-12.7-2-4.1-.9-7.8-2.3-11-4.1-3.2-1.8-5.8-4.3-7.7-7.4-1.9-3.1-2.9-7-2.9-11.8s1.4-11.7,4.3-15.5c2.9-3.8,6.9-6.5,12-8.2,5.1-1.6,10.8-2.5,17.3-2.5s11.6.6,16.5,1.7c4.8,1.1,9.3,2.6,13.3,4.5v18.4h-16c-1-1.9-2.3-3.6-3.8-5.1s-3.6-2.2-6-2.2-4.3.9-5.2,2.8c-.9,1.9-1.4,4.2-1.4,7,5,.2,9.6.7,13.8,1.5,4.3.8,8,2.2,11.2,4.1,3.2,1.9,5.7,4.5,7.5,7.7,1.8,3.3,2.7,7.4,2.7,12.5s-1.5,11.3-4.5,14.8c-3,3.5-7.1,6-12.3,7.4-5.1,1.4-10.9,2.1-17.4,2.1Z"/>
        <path class="cls-2" d="M101.9,103.9c-1.7-.5-3.5-.9-5.3-1.3-1.4-.3-2.8-.6-4.2-.8-.7.7-1.4,1.4-2.2,2.1-7.6,6.6-18.2,9.9-31.5,9.9s-12.7-.5-18-1.6c-.8-.2-1.5-.3-2.3-.5-3,2.5-5.5,5.5-7.6,8.9-4.2,6.8-6.2,15.5-6.2,26.1,0,15.8,4.5,27.6,13.5,35.5,9,7.9,21.4,11.8,37.1,11.8s15.4-.9,22-2.6c6.6-1.7,12.8-3.8,18.6-6.2v-42.4h-37.4v15.7h12.8v7.3c-1.6.5-3.2.9-4.8,1.1-1.6.3-3.4.4-5.3.4-6.8,0-11.5-1.7-14.1-5.1-2.6-3.4-3.9-8.6-3.9-15.6s1.5-10.6,4.4-14c3-3.4,7.3-5.2,13.1-5.2s6.9.8,9,2.3c2.1,1.6,3.9,3.5,5.5,5.9h18.1v-22.9h-11.4v-8.9Z"/>
        <polygon class="cls-2" points="223.2 102.9 217 102.9 213.4 109 209.8 102.9 203.5 102.9 203.5 112.8 186.9 112.8 186.9 128.1 192.9 129.5 180.8 148 168.6 129.5 174.6 128.1 174.6 112.8 158.3 112.8 153.5 112.8 123.3 112.8 123.3 128.1 133 129.5 159.4 165.6 151.7 167.5 151.7 192.9 209.8 192.9 209.8 167.5 202.1 165.6 228.5 129.5 238.1 128.1 238.1 112.8 223.2 112.8 223.2 102.9"/>
        <path class="cls-2" d="M345.8,113.7c-6.6,0-12.6-.5-17.7-1.4-.8-.1-1.6-.3-2.4-.5l-14.2,25.4-19.3-34.4h-18.9v9.8h-27.1v15.3l7.7,1.5v36.3l-7.7,1.5v25.5h46v-44l19.3,32.4,19.2-32.4v44h46v-25.5l-7.7-1.5v-36.3l7.7-1.5v-22.8c-3.3,2.8-7.3,4.8-12,6.1-5.6,1.5-12,2.3-18.9,2.3Z"/>
      </g>
      <polygon class="cls-1" points="270.9 76.3 270.9 76.3 270.9 62.8 270.9 62.8 270.9 76.3"/>
      <path class="cls-1" d="M306.9,108.8l4.5,8.1,2.5-4.6c-.8-.4-1.7-.8-2.5-1.2l-4.6-2.3Z"/>
      <path class="cls-1" d="M280.9,86.6h-3.7v6.3h20.8l8,14.3v-28.1c-2.1,1.6-4.5,3-7.1,4.1-5.3,2.2-11.3,3.4-18,3.4Z"/>
      <path class="cls-1" d="M374.2,60.1h8v-26.6l-2.9-1.3c-4.3-2-9.1-3.6-14.3-4.8-5.2-1.2-11.1-1.8-17.6-1.8s-13.3.9-18.8,2.7c-6,1.9-10.9,5.3-14.4,9.9-.5.6-.9,1.2-1.3,1.9v-19.2h-43.7v6.7h-42.9l-12.9,23.1-13-23.1h-91v-6.7h-60.4v32.1l8.3,1.3v18.8c0,1.4-.2,2.7-.6,4-.3.9-.7,1.7-1.2,2.2,0,0-.3.2-.9.2-1.5,0-2.3-.5-2.7-1-1.2-1.1-2.2-2.4-3-3.8l-1.4-2.6h-23.9v32.4l2.6,1.4c2.3,1.3,4.8,2.4,7.5,3.3-2.7,2.6-5.1,5.5-7.1,8.7-4.6,7.6-7,17.2-7,28.7,0,17.2,5.1,30.4,15.2,39.2,9.9,8.7,23.5,13.1,40.4,13.1s16.2-.9,23.2-2.7c6.8-1.8,13.3-3.9,19.3-6.4l3.1-1.3v-50.7h-2.6v-5.4h-2.4v-22.5h5.2v22.5h-2.7l11.9,1.7,20.7,28.4-4.2,1.1v34.3h68.1v-34.3l-4.3-1.1,20.7-28.4,11.3-1.6,6.2,1.2v28.1l-7.7,1.5v34.6h56v-30.9l14.4,24.1,14.1-23.9v30.7h56v-34.6l-7.7-1.5v-28.1l7.7-1.5v-34.4c2.1-3.9,3.2-8.7,3.2-14.4s-1.1-10.9-3.3-14.9c-1.8-3.4-4.3-6.2-7.4-8.4ZM73.5,137.9v23.2c-1-.5-1.8-1.1-2.4-1.8-1.9-2.5-2.9-6.8-2.9-12.5s1.1-8.3,3.2-10.8c2-2.3,5-3.4,9.3-3.4s5.2.7,6,1.3c1.4,1.1,2.7,2.4,3.9,4.1h-17.1ZM109.2,80.4l-6.3,1.2v17.4c-1.9-.5-3.6-1-5.3-1.3-.9-.2-1.8-.4-2.8-.6,4.1-6.2,6.2-14.2,6.2-24v-18.8l1.9-.3v3.5l6.3,1.2v21.7ZM160.8,80.4l-4.9.9-4.9-.9v-21.7l4.9-.9,4.9.9v21.7ZM180.8,138.9l-4.1-6.1,2.9-.7v-20.3h2.3v20.3l2.9.7-4,6.1ZM202.5,97.9v-9.3l5.6,9.3h-5.6ZM224.2,97.9h-5.4l5.4-9.2v9.2ZM311.5,127.1l-16.4-29.1h-22.8v-16.3l-6.3-1.2v-21.7l4.5-.9h5.5v23.8h5c6,0,11.4-1,16-3,5-2.1,8.9-5.4,11.7-9.8.5-.9,1-1.8,1.5-2.7.6,1.8,1.3,3.4,2.2,4.9,1.9,3.1,4.4,5.7,7.5,7.8h-8.9v26.4l2.7,1.4c2.3,1.2,4.8,2.2,7.4,3l-9.7,17.4ZM350.6,53s0,0,0,0c.1,0,.4,0,.7,0,1,0,1.6.2,2,.4-.9-.1-1.9-.2-2.8-.3Z"/>
      <path class="cls-3" d="M86.7,133.8c-.8-.6-2.5-1.3-6-1.3s-7.3,1.1-9.3,3.4c-2.2,2.5-3.2,6.1-3.2,10.8s1,10,2.9,12.5c.6.8,1.4,1.4,2.4,1.8v-23.2h17.1c-1.2-1.6-2.5-3-3.9-4.1Z"/>
      <path class="cls-3" d="M102.9,54l-1.9.3v18.8c0,9.8-2.1,17.8-6.2,24,1,.2,1.9.4,2.8.6,1.6.4,3.3.8,5.3,1.3v-17.4l6.3-1.2v-21.7l-6.3-1.2v-3.5Z"/>
      <path class="cls-3" d="M386,66.2c-.2-.4-.4-.7-.6-1h1.8V30.3l-5.8-2.7c-4.6-2.1-9.8-3.9-15.3-5.1-5.5-1.3-11.8-1.9-18.7-1.9s-14.3,1-20.4,2.9c-3.4,1.1-6.4,2.5-9.2,4.4v-12h-53.7v6.7h-40.8l-10,17.9-10.1-17.9h-89v-6.7H43.9v41.4l8.3,1.3v12l-1.8-3.4h-31.8v40.3l5.1,2.9c.5.3,1,.5,1.5.8-1.1,1.4-2,2.8-2.9,4.3-5.1,8.4-7.7,18.9-7.7,31.3,0,18.7,5.7,33.2,17,43,10.9,9.5,25.6,14.3,43.7,14.3s17.1-1,24.5-2.9c7-1.8,13.7-4.1,20-6.7l6.1-2.6v-53.3l1.6.2,15.1,20.7-.8.2v43.2h78.1v-43.2l-.9-.2,15.1-20.7,8.4-1.2,1.3.3v19.8l-7.7,1.5v43.7h66v-17.7l9.4,15.7,9.1-15.4v17.4h66v-43.7l-7.7-1.5v-19.8l7.7-1.5v-37.4c2.1-4.4,3.2-9.7,3.2-15.6s-1.3-12.5-3.9-17.3ZM381.7,97.8v34.4l-7.7,1.5v28.1l7.7,1.5v34.6h-56v-30.7l-14.1,23.9-14.4-24.1v30.9h-56v-34.6l7.7-1.5v-28.1l-6.2-1.2-11.3,1.6-20.7,28.4,4.3,1.1v34.3h-68.1v-34.3l4.2-1.1-20.7-28.4-11.9-1.7h0v5.4h2.6v50.7l-3.1,1.3c-6,2.5-12.5,4.7-19.3,6.4-7,1.8-14.8,2.7-23.2,2.7-16.9,0-30.5-4.4-40.4-13.1-10.1-8.9-15.2-22.1-15.2-39.2s2.3-21.1,7-28.7c2-3.3,4.4-6.2,7.1-8.7-2.7-.9-5.2-2-7.5-3.3l-2.6-1.4v-32.4h23.9l1.4,2.6c.7,1.4,1.7,2.7,3,3.8.5.4,1.2,1,2.7,1s.8-.2.9-.2c.5-.5.9-1.2,1.2-2.2.4-1.3.6-2.6.6-4v-18.8l-8.3-1.3V20.8h60.4v6.7h91l13,23.1,12.9-23.1h42.9v-6.7h43.7v19.2c.4-.6.8-1.3,1.3-1.9,3.5-4.6,8.4-8,14.4-9.9,5.5-1.8,11.9-2.7,18.8-2.7s12.4.6,17.6,1.8c5.1,1.2,9.9,2.8,14.3,4.8l2.9,1.3v26.6h-8c3.1,2.2,5.6,5,7.4,8.4,2.2,4,3.3,9,3.3,14.9s-1.1,10.5-3.2,14.4Z"/>
      <path class="cls-3" d="M311,105.3v-26.4h8.9c-3-2.1-5.5-4.7-7.5-7.8-.9-1.5-1.7-3.1-2.2-4.9-.4.9-.9,1.8-1.5,2.7-2.8,4.4-6.8,7.7-11.7,9.8-4.7,2-10.1,3-16,3h-5v-23.8h-5.5l-4.5.9v21.7l6.3,1.2v16.3h22.8l16.4,29.1,9.7-17.4c-2.6-.8-5.1-1.8-7.4-3l-2.7-1.4ZM270.9,76.3h0v-13.5h0s0,13.5,0,13.5ZM306,107.2l-8-14.3h-20.8v-6.3h3.7c6.7,0,12.7-1.1,18-3.4,2.6-1.1,5-2.5,7.1-4.1v28.1ZM311.5,116.8l-4.5-8.1,4.6,2.3c.8.4,1.6.8,2.5,1.2l-2.5,4.6Z"/>
      <path class="cls-3" d="M350.7,52.9s0,0,0,0c.9,0,1.9.2,2.8.3-.4-.2-1.1-.4-2-.4s-.6,0-.7,0Z"/>
      <polygon class="cls-3" points="151 58.7 151 80.4 155.9 81.3 160.8 80.4 160.8 58.7 155.9 57.7 151 58.7"/>
      <polygon class="cls-3" points="224.2 97.9 224.2 88.8 218.8 97.9 224.2 97.9"/>
      <polygon class="cls-3" points="202.5 97.9 208 97.9 202.5 88.6 202.5 97.9"/>
      <polygon class="cls-3" points="181.9 111.8 179.6 111.8 179.6 132.1 176.7 132.7 180.8 138.9 184.8 132.7 181.9 132.1 181.9 111.8"/>
    </g>
  </g>
</svg>